<?xml version="1.0" encoding="UTF-8"?>
<!DOCTYPE svg PUBLIC "-//W3C//DTD SVG 1.1//EN" "http://www.w3.org/Graphics/SVG/1.1/DTD/svg11.dtd">
<svg xmlns="http://www.w3.org/2000/svg" version="1.1" width="512px" height="512px" style="shape-rendering:geometricPrecision; text-rendering:geometricPrecision; image-rendering:optimizeQuality; fill-rule:evenodd; clip-rule:evenodd" xmlns:xlink="http://www.w3.org/1999/xlink">
<g><path fill="#00FF00" d="M 191.5,78.5 C 221.174,78.1668 250.841,78.5002 280.5,79.5C 222.68,137.82 164.68,195.986 106.5,254C 164.499,254.5 222.499,254.667 280.5,254.5C 280.5,307.833 280.5,361.167 280.5,414.5C 251.167,414.5 221.833,414.5 192.5,414.5C 192.5,385.167 192.5,355.833 192.5,326.5C 133.833,326.5 75.1667,326.5 16.5,326.5C 16.3334,302.164 16.5,277.831 17,253.5C 75.368,195.299 133.535,136.965 191.5,78.5 Z"/></g>
<g><path fill="#00FF00" d="M 317.5,78.5 C 376.5,78.5 435.5,78.5 494.5,78.5C 494.667,108.502 494.5,138.502 494,168.5C 465,197.5 436,226.5 407,255.5C 406.333,284.167 406.333,312.833 407,341.5C 436,312.5 465,283.5 494,254.5C 494.5,284.165 494.667,313.831 494.5,343.5C 435.5,343.5 376.5,343.5 317.5,343.5C 317.333,313.831 317.5,284.165 318,254.5C 347,225.5 376,196.5 405,167.5C 405.667,138.833 405.667,110.167 405,81.5C 376.32,110.347 347.486,139.014 318.5,167.5C 317.5,137.841 317.167,108.174 317.5,78.5 Z"/></g>
</svg>
