<?xml version="1.0" encoding="UTF-8"?>
<!DOCTYPE svg PUBLIC "-//W3C//DTD SVG 1.1//EN" "http://www.w3.org/Graphics/SVG/1.1/DTD/svg11.dtd">
<svg xmlns="http://www.w3.org/2000/svg" version="1.1" width="96px" height="96px" style="shape-rendering:geometricPrecision; text-rendering:geometricPrecision; image-rendering:optimizeQuality; fill-rule:evenodd; clip-rule:evenodd" xmlns:xlink="http://www.w3.org/1999/xlink">
<g><path style="opacity:0.838" fill="#fefffe" d="M 16.5,15.5 C 27.4265,24.7577 37.7598,34.7577 47.5,45.5C 56.9584,35.5409 66.625,25.7076 76.5,16C 79.4447,16.747 81.7781,18.5804 83.5,21.5C 72.1986,34.4687 60.1986,46.802 47.5,58.5C 35.8748,46.3742 24.0414,34.3742 12,22.5C 11.3333,21.8333 11.3333,21.1667 12,20.5C 13.7073,18.9625 15.2073,17.2959 16.5,15.5 Z"/></g>
<g><path style="opacity:0.84" fill="#fefffe" d="M 76.5,38.5 C 80.4239,39.9072 82.5906,42.5739 83,46.5C 71.0151,57.6511 59.1817,68.9844 47.5,80.5C 34.8648,69.5321 22.8648,57.8654 11.5,45.5C 13.2219,42.5804 15.5553,40.747 18.5,40C 27.713,49.7148 37.3797,58.8815 47.5,67.5C 57.521,58.1457 67.1877,48.479 76.5,38.5 Z"/></g>
</svg>
