<!DOCTYPE svg PUBLIC "-//W3C//DTD SVG 1.1//EN" "http://www.w3.org/Graphics/SVG/1.1/DTD/svg11.dtd">

<!-- Uploaded to: SVG Repo, www.svgrepo.com, Transformed by: SVG Repo Mixer Tools -->
<svg
  version="1.1"
  id="Icons"
  xmlns="http://www.w3.org/2000/svg"
  xmlns:xlink="http://www.w3.org/1999/xlink"
  viewBox="0 0 32 32"
  xml:space="preserve"
  transform="matrix(-1, 0, 0, 1, 0, 0)"
>
  <g id="SVGRepo_bgCarrier" stroke-width="0" />
  <g id="SVGRepo_tracerCarrier" stroke-linecap="round" stroke-linejoin="round" />
  <g id="SVGRepo_iconCarrier">
    <style type="text/css">
      .st0 {
		fill: none;
        stroke-width: 2.5;
        stroke-linecap: round;
        stroke-linejoin: round;
        stroke-miterlimit: 10;
      }
    </style>
      <path
        class="st0"
        d="M19.5,7C15.4,2.9,8.6,3.1,4.8,7.5c-3.6,4.2-3,10.5,1,14.3c3.7,3.5,6.5,4,9,3c2.2-0.9,4.6-0.4,6.2,1.3l3.1,3.5 c0.3,0.4,1,0.4,1.3,0l2.5-2.5c0.4-0.4,0.4-1,0-1.3l-3.4-3c-1.8-1.6-2.2-4-1.4-6.2C24,13.9,23.5,11,19.5,7z"
      />
      <line class="st0" x1="9.8" y1="24.5" x2="22.7" y2="11.5" />
      <circle class="st0 ball" cx="27" cy="5" r="3" />
  </g>
</svg>
