<?xml version="1.0" standalone="no"?>
<!DOCTYPE svg PUBLIC "-//W3C//DTD SVG 20010904//EN"
 "http://www.w3.org/TR/2001/REC-SVG-20010904/DTD/svg10.dtd">
<svg version="1.0" xmlns="http://www.w3.org/2000/svg"
 width="2026.000000pt" height="1078.000000pt" viewBox="0 0 2026.000000 1078.000000"
 preserveAspectRatio="xMidYMid meet">

<g transform="translate(0.000000,1078.000000) scale(0.100000,-0.100000)"
fill="#000000" stroke="none">
<path d="M19440 10292 c-1812 -1084 -5542 -3351 -5585 -3395 -14 -14 -20 -17
285 164 1010 599 4231 2552 5545 3362 246 151 285 177 274 177 -2 0 -236 -139
-519 -308z"/>
<path d="M14865 10001 c-55 -32 -298 -172 -540 -311 -919 -528 -2317 -1351
-3582 -2108 -332 -198 -603 -357 -603 -353 0 5 23 64 51 132 69 170 177 388
239 484 28 44 53 90 56 102 4 13 -3 66 -15 120 -18 82 -26 102 -55 132 -18 20
-41 50 -49 67 -18 34 -70 64 -112 64 -51 0 -91 -29 -138 -99 l-46 -69 -88 19
c-135 28 -159 26 -234 -22 -35 -23 -73 -49 -84 -59 -11 -9 -36 -17 -56 -17
-20 -1 -50 -8 -68 -17 -45 -24 -115 -117 -166 -221 -52 -106 -94 -145 -152
-145 -21 0 -53 -9 -70 -20 -39 -23 -113 -122 -155 -203 -34 -69 -98 -255 -98
-287 0 -12 -11 -31 -25 -42 -42 -33 -210 -380 -280 -580 -15 -43 -29 -78 -31
-78 -1 0 -49 91 -106 203 -57 111 -141 261 -186 332 -198 317 -248 350 -388
256 -50 -34 -61 -37 -88 -30 -55 16 -170 10 -242 -12 -80 -24 -226 -98 -335
-167 -104 -67 -122 -108 -94 -207 5 -17 -7 -26 -80 -59 -129 -59 -288 -166
-304 -205 -24 -57 -9 -104 63 -198 l65 -85 -5 -81 c-5 -71 -3 -86 16 -115 22
-36 72 -62 119 -62 22 0 37 -9 55 -33 30 -39 126 -239 120 -248 -2 -4 -50 -35
-106 -70 -1560 -956 -4334 -2696 -4378 -2746 -7 -8 -29 -21 335 187 913 522
2108 1222 3507 2057 373 222 684 406 692 409 21 8 135 -342 255 -789 28 -103
51 -193 51 -200 -1 -6 -733 -457 -1627 -1002 -2391 -1455 -5597 -3425 -5628
-3458 -5 -6 1 -4 15 5 14 8 457 271 985 585 1115 662 3022 1807 4934 2962 739
446 1345 811 1346 811 7 0 106 -422 102 -433 -3 -7 -359 -241 -791 -521 -433
-280 -784 -512 -779 -517 4 -4 212 -95 461 -202 l453 -194 -960 -752 c-934
-732 -1017 -797 -996 -788 36 15 3023 1622 3033 1632 10 9 -87 50 -458 190
-258 98 -470 181 -470 185 0 4 134 93 298 197 l298 189 48 -89 c78 -144 132
-161 258 -78 42 27 82 58 89 68 11 15 30 21 79 25 92 8 166 39 288 122 135 91
146 105 144 193 l-2 68 73 28 c82 31 261 148 291 190 16 22 21 42 19 88 l-2
60 40 -45 c55 -62 173 -119 304 -146 73 -15 155 -23 302 -27 l203 -6 40 40
c32 33 40 48 40 77 0 20 1 36 3 36 19 0 356 103 373 115 13 8 31 29 39 45 8
16 28 36 43 44 46 23 181 66 336 106 l148 39 -6 -42 c-4 -22 -11 -46 -17 -53
-5 -6 -69 -49 -142 -95 -594 -373 -1397 -886 -1412 -902 -5 -5 6 -1 25 10 19
11 73 42 120 68 130 73 783 450 1079 622 145 85 266 152 268 149 9 -8 -102
-188 -180 -291 -116 -156 -214 -263 -354 -385 -190 -167 -194 -170 -270 -170
-101 0 -119 -12 -213 -146 -74 -104 -84 -124 -89 -173 l-6 -56 -81 -6 c-50 -4
-90 -12 -106 -23 -14 -9 -62 -69 -107 -133 -78 -112 -81 -119 -81 -173 0 -31
7 -80 16 -110 13 -44 13 -55 2 -65 -7 -6 -317 -198 -688 -425 -907 -556 -2773
-1709 -2785 -1723 -5 -6 1 -4 15 5 14 8 507 301 1095 650 589 350 1370 816
1737 1036 l667 401 20 -32 c53 -86 154 -144 268 -153 37 -3 104 -14 147 -25
44 -10 101 -19 128 -19 43 0 48 -3 53 -25 3 -14 8 -37 11 -52 3 -14 20 -41 39
-60 28 -28 40 -33 80 -33 25 0 56 5 68 12 51 27 397 347 712 661 l340 338 230
141 c646 397 1621 1002 1630 1011 6 5 -6 1 -25 -10 -186 -110 -1307 -777
-1487 -884 -127 -77 -234 -139 -237 -139 -3 0 11 21 31 48 44 58 72 117 73
157 1 24 15 41 73 90 58 49 91 90 183 230 264 402 458 782 566 1110 52 159 98
381 98 474 l0 39 268 168 c860 539 1831 1161 1737 1112 -81 -43 -1168 -670
-1687 -974 l-347 -204 -47 32 c-64 43 -224 112 -342 147 -263 78 -575 87 -887
25 -16 -3 604 397 1379 889 774 493 1410 897 1412 899 2 2 -220 123 -492 268
-470 251 -494 264 -477 281 10 9 410 308 888 664 479 356 875 652 880 658 6 6
-10 -1 -35 -15 -1637 -919 -2579 -1452 -2575 -1458 2 -4 155 -101 340 -215
184 -114 335 -210 335 -213 0 -5 -550 -367 -615 -404 -8 -5 -14 0 -17 17 -4
20 4 30 48 60 67 47 88 89 80 159 -9 70 -38 114 -86 133 -22 9 -40 23 -40 31
0 28 -85 99 -141 118 -70 24 -203 24 -282 0 l-58 -17 -30 26 c-71 59 -113 49
-296 -72 -303 -203 -519 -324 -613 -344 -27 -6 -59 -18 -70 -27 -12 -10 -63
-85 -114 -167 -99 -161 -116 -176 -203 -190 -23 -3 -52 -14 -65 -24 -13 -11
-140 -210 -283 -444 -143 -234 -261 -424 -262 -423 -7 6 262 928 301 1035 25
68 47 125 48 126 2 1 62 37 133 80 601 364 2278 1403 3090 1913 678 426 1680
1065 1700 1083 17 17 0 8 -100 -50z m-4560 -1915 c22 14 23 14 34 -30 17 -69
14 -84 -30 -154 -81 -128 -203 -387 -306 -652 -142 -363 -193 -527 -504 -1625
-176 -621 -324 -1144 -330 -1161 -14 -45 -92 -98 -133 -90 -27 5 -37 1 -68
-31 -49 -50 -68 -99 -68 -172 l0 -60 -72 -49 c-184 -124 -284 -140 -356 -58
-42 48 -55 107 -44 191 5 39 9 71 8 72 -1 1 -18 -28 -38 -65 -35 -66 -35 -68
-23 -125 14 -64 20 -73 50 -79 26 -4 31 -47 11 -87 -14 -25 -93 -91 -110 -91
-3 0 -26 40 -51 90 l-45 90 10 67 c13 89 13 85 -10 73 -24 -13 -24 -10 -4 32
15 31 13 42 -21 203 -50 233 -200 822 -280 1099 -223 776 -395 1139 -527 1112
-28 -5 -29 -4 -24 22 3 15 8 50 11 78 l6 50 -70 92 c-39 50 -71 95 -71 100 0
14 208 133 289 165 164 64 266 45 316 -58 29 -59 35 -64 56 -39 10 12 10 27 1
71 -13 63 -10 70 44 104 28 17 37 19 49 9 24 -20 178 -255 245 -375 80 -142
200 -388 289 -590 l70 -160 -22 -17 c-16 -13 -18 -18 -7 -18 8 0 20 -4 27 -8
6 -4 28 -86 48 -182 19 -96 38 -181 40 -188 4 -9 18 -4 51 18 l46 32 -20 -37
c-18 -37 -18 -39 1 -139 11 -55 21 -103 23 -105 2 -2 14 3 27 12 18 12 26 28
31 66 27 205 223 844 447 1463 53 145 54 147 82 145 27 -2 31 2 57 73 34 88
36 102 14 93 -8 -3 -30 -36 -49 -74 -37 -72 -55 -92 -55 -61 0 11 91 212 203
447 196 414 203 428 249 461 l47 35 107 -21 c60 -11 110 -23 113 -25 2 -3 -35
-93 -82 -202 -48 -108 -85 -198 -84 -200 2 -1 30 15 62 37 l59 39 12 70 c14
85 69 200 155 331 l63 95 14 -62 c13 -62 14 -62 37 -47z m-764 -324 c-42 -84
-87 -159 -99 -168 -28 -19 -28 -11 4 78 33 93 85 193 126 242 29 35 32 37 39
19 5 -14 -15 -63 -70 -171z m-191 -365 c0 -7 -72 -192 -159 -412 -129 -323
-160 -392 -160 -360 -2 99 83 341 217 617 75 156 102 197 102 155z m2160 -12
c0 -20 -26 -42 -157 -131 -87 -59 -159 -108 -161 -110 -2 -1 -2 -11 0 -23 3
-18 12 -14 98 40 118 74 284 159 370 189 89 31 216 38 275 16 41 -16 44 -20
51 -62 4 -28 2 -49 -5 -58 -6 -7 -59 -45 -116 -82 -81 -54 -105 -74 -105 -91
0 -13 2 -23 5 -23 3 0 71 36 152 79 182 98 179 97 185 73 5 -16 -21 -38 -137
-117 -112 -76 -142 -100 -138 -115 5 -17 8 -17 59 7 42 19 57 22 74 13 11 -6
20 -17 20 -25 0 -7 -39 -42 -87 -76 -475 -343 -903 -829 -1222 -1388 -76 -134
-75 -130 -63 -149 7 -10 29 -4 101 23 121 47 301 98 443 127 154 31 515 33
648 4 130 -28 255 -71 360 -123 l95 -48 -2 -70 c-4 -149 -82 -433 -185 -674
-105 -246 -285 -571 -470 -851 -76 -113 -95 -135 -220 -243 -108 -93 -138
-125 -138 -144 l0 -25 43 32 c35 26 43 28 45 14 7 -29 -70 -126 -223 -283
-149 -152 -560 -531 -576 -531 -5 0 -9 11 -9 24 0 13 -3 31 -6 39 -4 11 30 39
115 97 67 46 121 88 121 95 0 25 -15 23 -74 -10 -108 -60 -178 -78 -296 -78
-74 0 -120 5 -155 17 -27 10 -89 21 -138 25 -74 6 -94 12 -129 37 -48 34 -90
109 -108 194 l-12 58 67 96 68 96 75 0 c72 0 76 1 136 44 137 99 498 435 678
630 372 405 550 716 565 989 5 88 4 97 -12 97 -60 0 -489 -112 -612 -160 -116
-45 -157 -71 -161 -101 -3 -24 -15 -29 -243 -94 -184 -53 -236 -72 -221 -78
21 -10 32 -35 32 -74 0 -22 -4 -23 -67 -23 -105 0 -291 18 -373 35 -139 29
-230 85 -246 151 -4 17 33 165 114 448 l121 423 105 168 c108 173 107 171 118
102 2 -9 162 242 361 567 l357 583 39 7 c81 13 425 209 701 400 36 25 66 45
68 45 1 1 2 -10 2 -24z m-2530 -1055 c11 -54 11 -65 -5 -99 -17 -38 -58 -71
-72 -58 -3 4 -2 48 4 97 8 69 15 94 29 105 11 8 22 15 25 15 4 0 12 -27 19
-60z m-114 -340 c-34 -84 -55 -126 -59 -116 -9 23 94 282 104 263 6 -9 -11
-62 -45 -147z"/>
<path d="M10207 8001 c-52 -55 -87 -118 -87 -156 0 -30 0 -30 52 5 33 22 38
30 38 66 0 24 10 60 25 88 13 25 23 46 21 46 -2 0 -24 -22 -49 -49z"/>
<path d="M9792 7444 c-16 -13 -36 -62 -67 -163 -25 -79 -44 -146 -42 -148 22
-22 142 247 135 303 -3 26 -3 26 -26 8z"/>
<path d="M7950 5945 c-10 -12 -9 -32 5 -108 10 -50 21 -95 24 -100 4 -4 15 -1
26 6 18 14 18 17 -1 112 -19 100 -31 118 -54 90z"/>
<path d="M8074 5644 l-21 -15 47 -230 c26 -127 50 -232 52 -234 2 -2 13 4 24
13 l21 17 -47 220 c-25 121 -48 225 -51 231 -3 8 -10 8 -25 -2z"/>
<path d="M9236 5481 c-35 -70 -55 -119 -51 -130 9 -22 117 193 113 222 -3 16
-21 -11 -62 -92z"/>
<path d="M9122 5165 c-13 -19 -34 -60 -47 -92 -25 -62 -60 -191 -54 -198 15
-14 57 -13 76 2 18 15 24 38 38 153 9 74 19 143 21 153 9 28 -9 19 -34 -18z"/>
<path d="M11339 6756 c-96 -65 -468 -506 -690 -818 -178 -252 -353 -548 -347
-590 2 -17 92 103 367 491 341 482 371 520 475 620 280 268 257 241 249 287
l-8 41 -46 -31z"/>
<path d="M11787 4385 c-17 -12 -171 -344 -164 -351 13 -13 46 43 112 190 41
93 74 170 73 172 -2 1 -11 -4 -21 -11z"/>
<path d="M11018 3957 c-20 -16 -91 -147 -80 -147 13 0 35 28 72 93 33 59 36
77 8 54z"/>
<path d="M11359 3748 c-112 -124 -112 -124 -101 -143 8 -15 11 -14 34 7 23 20
163 228 154 228 -2 0 -41 -42 -87 -92z"/>
<path d="M10978 3129 c-132 -107 -198 -167 -198 -180 0 -10 3 -19 8 -19 18 0
199 135 300 224 102 91 135 136 100 136 -7 0 -102 -73 -210 -161z"/>
<path d="M19534 5574 c-18 -14 -18 -15 4 -4 12 6 22 13 22 15 0 8 -5 6 -26
-11z"/>
<path d="M19140 5342 c-1572 -939 -5690 -3441 -5735 -3485 -14 -14 -17 -16
260 149 665 394 2927 1761 4075 2462 1669 1019 1787 1092 1770 1092 -3 0 -169
-98 -370 -218z"/>
<path d="M13144 4224 c-18 -14 -18 -15 4 -4 12 6 22 13 22 15 0 8 -5 6 -26
-11z"/>
<path d="M5834 324 c-18 -14 -18 -15 4 -4 12 6 22 13 22 15 0 8 -5 6 -26 -11z"/>
</g>
</svg>
