<?xml version="1.0" encoding="iso-8859-1"?>
<!-- Uploaded to: SVG Repo, www.svgrepo.com, Generator: SVG Repo Mixer Tools -->
<svg fill="#000000" height="800px" width="800px" version="1.1" id="Layer_1" xmlns="http://www.w3.org/2000/svg" xmlns:xlink="http://www.w3.org/1999/xlink" 
	 viewBox="0 0 512.009 512.009" xml:space="preserve">
<g>
	<g>
		<path d="M365.995,341.743l-3.157-0.533c-18.709-3.051-21.504-7.915-21.504-10.539c0-4.245,8.512-10.667,21.355-10.667
			c12.629,0,20.949,5.995,21.355,10.304c0.576,5.888,5.952,10.368,11.648,9.6c5.845-0.555,10.155-5.76,9.6-11.627
			c-1.621-16.896-19.925-29.632-42.603-29.632c-23.936,0-42.688,14.059-42.688,32c0,16.704,13.248,27.328,39.424,31.595
			l1.707-10.517l1.408,11.051c17.728,2.923,21.461,7.36,21.461,10.56c0,4.245-8.512,10.667-21.355,10.667
			c-12.629,0-20.949-6.016-21.355-10.325c-0.576-5.888-5.803-10.325-11.648-9.6c-5.845,0.555-10.155,5.76-9.6,11.627
			c1.621,16.896,19.925,29.632,42.603,29.632c23.936,0,42.688-14.059,42.688-32C405.333,356.655,392.107,346.031,365.995,341.743z"
			/>
	</g>
</g>
<g>
	<g>
		<path d="M509.888,388.271l-27.221-36.288l27.2-36.245c3.52-4.715,2.56-11.392-2.155-14.933c-4.693-3.52-11.371-2.603-14.933,2.133
			l-23.445,31.253l-23.445-31.253c-3.563-4.736-10.219-5.675-14.933-2.133s-5.675,10.219-2.155,14.933l27.2,36.245l-27.221,36.288
			c-3.52,4.715-2.56,11.392,2.155,14.933c1.92,1.429,4.181,2.133,6.4,2.133c3.221,0,6.443-1.472,8.533-4.267l23.467-31.296
			l23.467,31.296c2.091,2.795,5.312,4.267,8.533,4.267c2.219,0,4.48-0.704,6.4-2.133
			C512.448,399.663,513.408,392.986,509.888,388.271z"/>
	</g>
</g>
<g>
	<g>
		<path d="M288,298.671c-5.888,0-10.667,4.779-10.667,10.667v64c0,5.888-4.8,10.667-10.667,10.667
			c-5.867,0-10.667-4.779-10.667-10.667c0-5.888-4.779-10.667-10.667-10.667s-10.667,4.779-10.667,10.667c0,17.643,14.357,32,32,32
			c17.643,0,32-14.357,32-32v-64C298.667,303.45,293.888,298.671,288,298.671z"/>
	</g>
</g>
<g>
	<g>
		<path d="M373.333,277.338c5.888,0,10.667-4.779,10.667-10.667v-256c0-5.888-4.779-10.667-10.667-10.667H138.667
			c-1.429,0-2.837,0.299-4.117,0.832c-0.619,0.256-1.088,0.725-1.643,1.088c-0.597,0.384-1.28,0.683-1.792,1.195l-128,128
			c-0.491,0.491-0.768,1.152-1.152,1.728c-0.384,0.576-0.875,1.067-1.131,1.707C0.277,135.855,0,137.242,0,138.671v362.667
			c0,5.888,4.779,10.667,10.667,10.667h362.667c5.888,0,10.667-4.779,10.667-10.667v-64c0-5.888-4.779-10.667-10.667-10.667
			c-5.888,0-10.667,4.779-10.667,10.667v53.333H21.333V149.338h117.333c5.888,0,10.667-4.779,10.667-10.667V21.338h213.333v245.333
			C362.667,272.559,367.445,277.338,373.333,277.338z M128,128.004H36.416L128,36.42V128.004z"/>
	</g>
</g>
</svg>